<svg xmlns="http://www.w3.org/2000/svg" width="33" height="33" viewBox="0 0 33 33">
    <g fill="#000" fill-rule="evenodd" opacity=".2">
        <path fill-rule="nonzero" d="M32.134 25.458l-6.68-4.454a1.95 1.95 0 0 0-2.61.424L20.9 23.929a.831.831 0 0 1-1.067.225l-.37-.204c-1.227-.669-2.753-1.502-5.829-4.579-3.076-3.077-3.91-4.604-4.579-5.83l-.202-.37a.833.833 0 0 1 .22-1.07l2.5-1.945a1.95 1.95 0 0 0 .424-2.61L7.542.866A1.94 1.94 0 0 0 4.927.277L2.134 1.955A3.94 3.94 0 0 0 .338 4.287c-1.006 3.665-.25 9.99 9.067 19.309C16.817 31.006 22.334 33 26.126 33a9.742 9.742 0 0 0 2.585-.338 3.936 3.936 0 0 0 2.332-1.796l1.679-2.792a1.94 1.94 0 0 0-.588-2.616zm-.36 2.052L30.1 30.303c-.37.634-.971 1.1-1.677 1.3-3.384.929-9.294.16-18.239-8.786C1.24 13.872.47 7.962 1.4 4.578c.2-.707.667-1.309 1.301-1.68l2.793-1.675a.841.841 0 0 1 1.135.255l2.42 3.633 2.03 3.046a.847.847 0 0 1-.183 1.133l-2.5 1.945a1.925 1.925 0 0 0-.51 2.47l.198.362c.703 1.289 1.577 2.892 4.767 6.082 3.19 3.19 4.793 4.064 6.081 4.767l.361.199a1.925 1.925 0 0 0 2.47-.51l1.946-2.5a.847.847 0 0 1 1.133-.185l6.678 4.455a.84.84 0 0 1 .255 1.135z"/>
        <path d="M18.55 5.1a9.36 9.36 0 0 1 9.35 9.35.55.55 0 1 0 1.1 0C28.994 8.681 24.319 4.006 18.55 4a.55.55 0 1 0 0 1.1z"/>
        <path d="M19.5 9a5.507 5.507 0 0 1 5.5 5.5.5.5 0 0 0 1 0A6.508 6.508 0 0 0 19.5 8a.5.5 0 1 0 0 1z"/>
        <path d="M19.5 12a2.503 2.503 0 0 1 2.5 2.5.5.5 0 0 0 1 0 3.504 3.504 0 0 0-3.5-3.5.5.5 0 1 0 0 1z"/>
    </g>
</svg>
