<svg xmlns="http://www.w3.org/2000/svg" width="64" height="64" viewBox="0 0 64 64">
    <g fill="#0FA9EB" fill-rule="evenodd">
        <path fill-rule="nonzero" d="M58.667 0H5.333A5.34 5.34 0 0 0 0 5.333V44.8a5.34 5.34 0 0 0 5.333 5.333h32v12.8a1.067 1.067 0 0 0 1.405 1.013l6.062-2.022 6.063 2.022a1.065 1.065 0 0 0 1.404-1.012v-12.8h6.4A5.34 5.34 0 0 0 64 44.798V5.333A5.34 5.34 0 0 0 58.667 0zm3.2 5.333v2.038a6.41 6.41 0 0 1-5.238-5.238h2.038c1.764 0 3.2 1.436 3.2 3.2zm-56.534-3.2h2.038a6.41 6.41 0 0 1-5.238 5.238V5.333c0-1.764 1.436-3.2 3.2-3.2zM2.133 44.8v-2.037a6.41 6.41 0 0 1 5.238 5.237H5.333a3.204 3.204 0 0 1-3.2-3.2zm33.183-13.001c.33-.47.671-.956.859-1.534.195-.6.208-1.234.22-1.796.012-.544.024-1.108.207-1.357.187-.257.722-.443 1.24-.622.527-.183 1.125-.39 1.63-.758.5-.364.877-.865 1.21-1.307.332-.44.675-.896.986-.997.28-.093.815.067 1.33.223.543.164 1.159.35 1.802.35s1.26-.186 1.803-.35c.514-.155 1.048-.316 1.33-.223.311.101.653.555.985.997.333.442.712.943 1.21 1.307.505.368 1.103.575 1.63.757.517.18 1.053.366 1.241.624.183.25.195.813.206 1.357.012.56.026 1.196.221 1.795.188.578.53 1.065.859 1.534.318.455.648.927.648 1.268 0 .341-.33.813-.65 1.268-.329.47-.67.956-.858 1.534-.195.6-.208 1.235-.22 1.796-.012.544-.024 1.108-.207 1.357-.186.258-.721.443-1.24.622-.527.183-1.124.39-1.63.758-.5.364-.877.865-1.21 1.307-.332.44-.675.896-.986.998-.281.092-.815-.069-1.33-.223-.543-.165-1.159-.35-1.802-.35s-1.26.185-1.803.35c-.514.154-1.048.316-1.33.223-.311-.102-.653-.556-.985-.998-.333-.442-.712-.943-1.21-1.307-.504-.367-1.103-.575-1.63-.757-.517-.18-1.052-.365-1.241-.624-.183-.25-.195-.813-.206-1.357-.012-.56-.026-1.195-.221-1.795-.188-.578-.53-1.064-.859-1.534-.318-.455-.648-.927-.648-1.268 0-.341.33-.813.65-1.268zm9.821 27.99a1.076 1.076 0 0 0-.675 0l-4.995 1.664V43.606c.402.473.877.913 1.54 1.128.92.298 1.814.028 2.605-.209.443-.133.86-.26 1.188-.26.329 0 .746.127 1.188.26.541.162 1.132.34 1.745.34.282 0 .57-.037.858-.13.665-.216 1.14-.657 1.542-1.13v17.847l-4.996-1.664zm7.13-18.057c.066-.024.124-.047.192-.07.789-.274 1.684-.585 2.265-1.383.577-.792.597-1.735.615-2.567.01-.454.019-.882.116-1.182.089-.275.325-.612.576-.968.46-.66 1.036-1.48 1.036-2.495 0-1.015-.575-1.835-1.037-2.494-.25-.356-.486-.693-.576-.967-.097-.3-.107-.73-.117-1.182-.018-.832-.038-1.776-.614-2.566-.58-.8-1.476-1.11-2.266-1.385-.425-.147-.826-.286-1.075-.467-.242-.176-.493-.511-.761-.866-.507-.672-1.08-1.434-2.03-1.742-.918-.295-1.814-.027-2.605.209-.44.134-.857.26-1.186.26-.329 0-.745-.126-1.187-.258-.79-.239-1.686-.507-2.604-.21-.951.308-1.525 1.07-2.03 1.742-.268.355-.52.689-.762.866-.249.181-.65.32-1.075.467-.054.02-.112.042-.167.061H20.267v2.133h14.22c-.185.583-.213 1.193-.224 1.756-.01.455-.02.882-.117 1.183-.088.274-.325.611-.576.967-.462.658-1.037 1.478-1.037 2.493 0 1.016.575 1.835 1.037 2.494.25.356.487.693.576.968.097.3.107.73.117 1.181.018.832.038 1.776.614 2.566.58.8 1.476 1.11 2.267 1.385l.19.07V48H9.527a8.543 8.543 0 0 0-7.394-7.394V9.526a8.543 8.543 0 0 0 7.394-7.393h44.947a8.542 8.542 0 0 0 7.394 7.393v31.081A8.542 8.542 0 0 0 54.474 48h-2.207v-6.27zm6.4 6.268h-2.038a6.41 6.41 0 0 1 5.238-5.237v2.037c0 1.764-1.436 3.2-3.2 3.2z"/>
        <path fill-rule="nonzero" d="M45 40c3.86 0 7-3.141 7-7s-3.14-7-7-7-7 3.141-7 7 3.14 7 7 7zm0-12c2.757 0 5 2.243 5 5s-2.243 5-5 5-5-2.243-5-5 2.243-5 5-5z"/>
        <path d="M13 9h38v2H13zM19 14h26v2H19zM8 35h21v2H8zM12 41h13v2H12zM46 47h2v2h-2zM46 51h2v2h-2zM46 55h2v2h-2z"/>
    </g>
</svg>
