<svg xmlns="http://www.w3.org/2000/svg" width="33" height="33" viewBox="0 0 33 33">
    <g fill="#000" fill-rule="evenodd" opacity=".2">
        <path fill-rule="nonzero" d="M32.993 12.616a.52.52 0 0 0-.022-.112.55.55 0 0 0-.032-.095.493.493 0 0 0-.055-.084.519.519 0 0 0-.073-.085c-.008-.008-.012-.018-.022-.026L27.5 8.106V3.848a1.65 1.65 0 0 0-1.65-1.65h-5.96L17.502.345a1.63 1.63 0 0 0-2.006 0L13.11 2.198H7.15a1.65 1.65 0 0 0-1.65 1.65v4.258L.21 12.214c-.01.008-.014.018-.022.026a.516.516 0 0 0-.074.085.49.49 0 0 0-.055.084.543.543 0 0 0-.03.095.521.521 0 0 0-.023.11c0 .012-.007.022-.007.033V31.35c0 .35.114.69.323.97.003.006.004.012.008.016.003.004.012.01.017.015.31.407.79.647 1.3.649H31.35a1.642 1.642 0 0 0 1.305-.651c.004-.006.01-.007.014-.013.004-.005.005-.01.008-.015.209-.28.322-.621.323-.971V12.649c0-.012-.006-.022-.007-.033zM16.17 1.213a.527.527 0 0 1 .656 0l1.27.985h-3.191l1.265-.985zM1.787 31.9l14.382-11.172a.528.528 0 0 1 .656 0L31.211 31.9H1.787zm30.113-.858L17.502 19.86a1.632 1.632 0 0 0-2.006 0L1.098 31.042V13.486l9.014 7a.55.55 0 1 0 .674-.87l-9.157-7.11L5.5 9.499v4.25a.55.55 0 0 0 1.1 0V3.848a.55.55 0 0 1 .55-.55h18.7a.55.55 0 0 1 .55.55v9.9a.55.55 0 1 0 1.1 0v-4.25l3.87 3.008-9.173 7.123a.55.55 0 1 0 .675.869l9.029-7.012v17.556z"/>
        <path d="M23 13.667V11.5a6.5 6.5 0 1 0-6.5 6.5.542.542 0 1 0 0-1.083 5.417 5.417 0 1 1 5.417-5.417v2.167a1.083 1.083 0 1 1-2.167 0V11.5a.542.542 0 1 0-1.083 0A2.167 2.167 0 1 1 16.5 9.333a.542.542 0 1 0 0-1.083 3.25 3.25 0 1 0 2.19 5.645 2.16 2.16 0 0 0 4.31-.228z"/>
    </g>
</svg>
