<svg xmlns="http://www.w3.org/2000/svg" width="48" height="20" viewBox="0 0 48 20">
    <g fill="#000" fill-rule="evenodd" opacity=".5">
        <g fill-rule="nonzero">
            <path d="M24.846 14.506c-.399 0-.686.13-.978.264v3.012c.28.027.44.027.704.027.957 0 1.088-.438 1.088-1.05v-1.438c0-.452-.15-.815-.814-.815zm-6.353-.164c-.663 0-.815.364-.815.815v.254h1.63v-.254c0-.45-.152-.815-.815-.815zM6.188 17.477c0 .357.168.543.54.543.399 0 .635-.13.926-.264v-.714h-.872c-.413 0-.594.076-.594.435zm24.837-2.97c-.665 0-.895.362-.895.814v1.648c0 .453.23.816.895.816.663 0 .895-.363.895-.816V15.32c0-.452-.232-.815-.895-.815zM2.93 19.324H.976v-4.73H0v-1.629h.976v-.979c0-1.33.552-2.12 2.118-2.12h1.304v1.63h-.815c-.61 0-.65.228-.65.653l-.003.816h1.477l-.173 1.63H2.93v4.73zm6.678.013H7.98l-.07-.412a3.733 3.733 0 0 1-1.846.478c-1.194 0-1.83-.797-1.83-1.9 0-1.303.742-1.767 2.07-1.767h1.35v-.282c0-.664-.076-.86-1.098-.86H4.885l.163-1.629h1.827c2.242 0 2.733.708 2.733 2.502v3.87zm5.538-4.623c-1.013-.173-1.304-.211-1.792-.211-.876 0-1.14.193-1.14.937v1.406c0 .744.264.938 1.14.938.488 0 .779-.038 1.792-.213v1.59c-.887.199-1.465.251-1.954.251-2.098 0-2.932-1.103-2.932-2.697v-1.142c0-1.595.834-2.7 2.932-2.7.489 0 1.067.053 1.954.253v1.588zm6.115 2.001h-3.583v.131c0 .744.265.938 1.14.938.788 0 1.268-.038 2.28-.213v1.59c-.976.199-1.484.251-2.441.251-2.098 0-2.933-1.103-2.933-2.697v-1.305c0-1.395.62-2.537 2.77-2.537s2.767 1.13 2.767 2.537v1.305zm6.352.03c0 1.54-.44 2.664-3.107 2.664-.963 0-1.528-.085-2.59-.248v-8.805l1.952-.326v3.08c.423-.157.969-.237 1.466-.237 1.954 0 2.28.876 2.28 2.283v1.59zm6.262.034c0 1.329-.548 2.617-2.844 2.617s-2.855-1.288-2.855-2.617v-1.283c0-1.33.559-2.619 2.855-2.619s2.844 1.29 2.844 2.619v1.283zm6.258 0c0 1.329-.55 2.617-2.845 2.617-2.296 0-2.855-1.288-2.855-2.617v-1.283c0-1.33.559-2.619 2.855-2.619 2.295 0 2.845 1.29 2.845 2.619v1.283zm6.421 2.545h-2.117l-1.79-2.989v2.99h-1.955v-8.97l1.954-.325v5.773l1.79-2.838h2.118L44.6 16.064l1.955 3.261zm-9.272-4.819c-.664 0-.894.363-.894.815v1.648c0 .453.23.816.894.816.662 0 .897-.363.897-.816V15.32c0-.452-.235-.815-.897-.815zM47.06 18.42c.257 0 .463.21.463.473a.465.465 0 0 1-.465.474.468.468 0 0 1-.468-.474.47.47 0 0 1 .468-.473h.001zm-.002.073a.39.39 0 0 0-.378.4c0 .224.17.4.38.4.21.003.377-.176.377-.398 0-.223-.168-.402-.377-.402h-.002zm-.089.675h-.084v-.528c.044-.006.086-.012.15-.012a.28.28 0 0 1 .163.04c.031.023.048.059.048.109 0 .07-.046.111-.102.128v.004c.046.009.077.05.088.128a.435.435 0 0 0 .033.13h-.088a.397.397 0 0 1-.036-.134c-.012-.067-.046-.092-.113-.092h-.059v.227zm0-.292h.061c.07 0 .128-.025.128-.09 0-.047-.034-.093-.128-.093a.413.413 0 0 0-.06.004v.179z"/>
        </g>
        <text font-family="ProximaNova-Regular, Proxima Nova" font-size="8" transform="translate(0 -1)">
            <tspan x="0" y="7">Like us on</tspan>
        </text>
    </g>
</svg>
