<svg xmlns="http://www.w3.org/2000/svg" xmlns:xlink="http://www.w3.org/1999/xlink" width="40" height="43" viewBox="0 0 40 43">
    <defs>
        <path id="a" d="M0 .588h39.467v33.787H0z"/>
        <path id="c" d="M.667.667h.666v.666H.667z"/>
        <path id="e" d="M0 .588h39.467v33.787H0z"/>
        <path id="g" d="M.409.378h13.266v10.073H.41z"/>
    </defs>
    <g fill="none" fill-rule="evenodd">
        <path fill="#167C75" d="M19.5 9A19.458 19.458 0 0 0 0 28.488a19.393 19.393 0 0 0 3.356 10.948l.2.277A5.33 5.33 0 0 0 7.947 42a5.405 5.405 0 0 0 5.405-5.405v-.009a1.335 1.335 0 0 1 .889-1.272 27.913 27.913 0 0 1 7.547-1.505c1.593-.093 4.423.36 4.423.36l-.005.009a5.453 5.453 0 0 0-.556 2.417A5.405 5.405 0 0 0 31.054 42a5.33 5.33 0 0 0 4.39-2.287l.2-.277A19.408 19.408 0 0 0 39 28.496C39 17.73 30.27 9 19.5 9"/>
        <path fill="#FEFEFE" d="M19.204 33.32a42.168 42.168 0 0 0-14.21 2.634c-.623.232-1.194-.466-.926-1.126 1.266-3.12 3.297-5.786 5.832-7.71.265-.201.63-.07.742.261.252.742.531 1.467.838 2.174.105.242.44.103.371-.154a29.759 29.759 0 0 1-1.004-7.698c0-8.275 3.354-15.69 8.65-20.701h.006c5.297 5.01 8.65 12.426 8.65 20.7 0 2.672-.351 5.257-1.004 7.7-.07.256.267.395.371.153a28.67 28.67 0 0 0 .838-2.174c.112-.331.478-.462.742-.261 2.534 1.924 4.566 4.59 5.833 7.71.266.66-.304 1.358-.927 1.127A42.148 42.148 0 0 0 19.8 33.32a50.255 50.255 0 0 0-.597 0"/>
        <path fill="#22194F" d="M10.642 26.991c-2.506 1.905-4.481 4.517-5.717 7.558a.45.45 0 0 0 .087.487c.082.083.173.106.273.069a42.8 42.8 0 0 1 14.413-2.672 42.95 42.95 0 0 1 6.188.429 42.79 42.79 0 0 1 8.829 2.243c.1.037.191.014.273-.07a.447.447 0 0 0 .087-.486c-1.236-3.042-3.21-5.653-5.712-7.553-.013-.005-.036.008-.05.053-.256.75-.542 1.496-.855 2.216a.627.627 0 0 1-.791.359.655.655 0 0 1-.42-.8 29.48 29.48 0 0 0 .991-7.612c0-7.715-2.997-15.037-8.238-20.162-5.241 5.125-8.238 12.447-8.238 20.162 0 2.589.334 5.151.991 7.612a.653.653 0 0 1-.418.8.629.629 0 0 1-.793-.359c-.311-.72-.599-1.465-.853-2.216-.016-.045-.04-.058-.047-.058M5.2 36a1.16 1.16 0 0 1-.822-.35 1.317 1.317 0 0 1-.277-1.426c1.294-3.19 3.367-5.928 5.994-7.924a.9.9 0 0 1 .81-.148.936.936 0 0 1 .41.255 30.628 30.628 0 0 1-.443-5.195c0-8.102 3.215-15.79 8.818-21.09L19.82 0h.358l.134.122c5.604 5.3 8.818 12.988 8.818 21.09 0 1.75-.149 3.489-.443 5.195a.943.943 0 0 1 .41-.255.896.896 0 0 1 .81.148c2.627 1.995 4.7 4.734 5.994 7.924a1.317 1.317 0 0 1-.277 1.427 1.144 1.144 0 0 1-1.223.275 41.875 41.875 0 0 0-14.103-2.614c-.149-.001-.446-.003-.59 0A41.866 41.866 0 0 0 5.6 35.927a1.155 1.155 0 0 1-.4.073"/>
        <path fill="#FEFEFE" d="M34.932 34.841c-1.266-3.09-3.298-5.729-5.831-7.633-.266-.2-.631-.068-.743.259a27.74 27.74 0 0 1-.838 2.152c-.105.24-.44.102-.371-.153a29.163 29.163 0 0 0 1.004-7.62c0-4.269-.913-8.307-2.536-11.897A20.11 20.11 0 0 0 19.5 9c-2.136 0-4.192.334-6.117.949-1.623 3.59-2.536 7.627-2.536 11.897 0 2.646.35 5.204 1.004 7.62.068.255-.266.394-.37.153a27.74 27.74 0 0 1-.84-2.152c-.112-.327-.476-.458-.742-.26-2.533 1.905-4.565 4.544-5.831 7.634-.268.654.303 1.344.927 1.114a42.43 42.43 0 0 1 14.209-2.606c.145-.001.386.993.537.994 1.862.021 3.52-.118 5.322.136 3.002.425 6.152.451 8.943 1.476.623.23 1.194-.46.926-1.114"/>
        <g transform="translate(0 8)">
            <mask id="b" fill="#fff">
                <use xlink:href="#a"/>
            </mask>
            <path fill="#22194F" d="M35.358 31.122l-.203.281a4.828 4.828 0 0 1-3.988 2.096c-2.415.006-2.343-6.204 2.641-4.783.43.121.876.054 1.194-.276.362-.37.469-.93.27-1.425-.63-1.59-2.67-6.725-4.966-11.766-2.99-6.563 1.23-8.772 2.814-8.098 3.244 2.321 5.476 6.413 5.476 13.32 0 3.824-1.122 7.513-3.238 10.651M8.089 17.106c-2.163 4.786-3.295 8.398-3.896 9.91a1.337 1.337 0 0 0 .27 1.424c.222.228.509.348.804.348.13 0 .261-.03.392-.072 4.841-1.567 5.35 4.783 2.64 4.783-1.604 0-3.058-.765-3.992-2.1l-.19-.265A19.002 19.002 0 0 1 .87 20.463c.002-6.098.013-7.127 3.34-11.138 3.189-2.174 6.717 1.495 3.878 7.78m17.966-15.47l-.002-.004-.184-.062c-.06-.019-.123-.036-.184-.055a16.826 16.826 0 0 0-.746-.222 43.73 43.73 0 0 0-.421-.111c-.085-.02-.169-.043-.254-.062a19.468 19.468 0 0 0-.592-.133C23.6.972 23.528.96 23.458.945c-.165-.031-.33-.06-.494-.088l-.175-.03c-.214-.033-.429-.062-.645-.09C22.062.727 21.98.72 21.9.71c-.185-.023-.37-.036-.555-.054L21.276.65a16.278 16.278 0 0 0-.845-.048 19.454 19.454 0 0 0-.698-.014c-.297 0-.593.01-.888.022-.114.005-.227.015-.34.02-.174.011-.349.023-.521.04a13.843 13.843 0 0 0-.8.087 19.504 19.504 0 0 0-11.412 5.64C2.052 10.143.002 15.138 0 20.463a19.898 19.898 0 0 0 3.404 11.175l.196.27c1.096 1.567 2.808 2.467 4.699 2.467 3.19 0 5.785-2.615 5.785-5.839 0-.386.235-.73.587-.853a27.005 27.005 0 0 1 7.351-1.476c.009 0 .02-.012.032-.031.246-.372-.032-.875-.475-.899a39.606 39.606 0 0 0-1.545-.048 40.972 40.972 0 0 0-6.053.428 41.106 41.106 0 0 0-8.628 2.238c-.099.038-.188.014-.267-.068A.451.451 0 0 1 5 27.341c1.207-3.037 3.137-5.644 5.586-7.546.006 0 .03.013.046.058.248.75.53 1.494.834 2.212a.611.611 0 0 0 .774.358.657.657 0 0 0 .41-.798 30.01 30.01 0 0 1-.97-7.599c0-4.05.783-7.94 2.324-11.569.068-.055.126-.104.193-.16.137-.035.271-.08.407-.117a16.157 16.157 0 0 1 .628-.167l.356-.084c.146-.034.292-.066.44-.094.08-.018.162-.032.244-.047.158-.03.316-.059.475-.083l.173-.029a17.129 17.129 0 0 1 .741-.096c.202-.021.404-.043.606-.058l.04-.004c.206-.014.41-.026.617-.034l.164-.007a19.42 19.42 0 0 1 1.289 0l.163.007a21.803 21.803 0 0 1 .65.037c.207.016.413.038.617.06a15.524 15.524 0 0 1 .755.1c.045.005.09.013.135.02.168.026.337.057.506.088.075.015.15.028.225.044.164.032.326.067.487.104.097.021.193.046.29.07a16.855 16.855 0 0 1 .645.17c.187.053.371.112.558.165a.02.02 0 0 0 .006.005c1.573 3.66 2.37 7.587 2.37 11.68 0 2.584-.326 5.14-.97 7.598a.657.657 0 0 0 .41.798c.316.11.64-.041.775-.358.305-.718.586-1.463.834-2.212.015-.045.037-.058.05-.053 2.445 1.897 4.375 4.503 5.582 7.541a.451.451 0 0 1-.085.486c-.079.082-.17.106-.267.068-2.595-.985-5.308-1.666-8.042-2.1-.04.171-.281.792-.178.808-.218.623-.512 1.268-.512 1.944 0 3.213 2.596 5.828 5.785 5.828 1.89 0 3.604-.9 4.697-2.46l.205-.289a19.88 19.88 0 0 0 3.398-11.155c0-8.736-5.622-16.175-13.412-18.836" mask="url(#b)"/>
        </g>
        <g transform="translate(-1 41)">
            <mask id="d" fill="#fff">
                <use xlink:href="#c"/>
            </mask>
        </g>
        <path fill="#167C75" d="M26 10c-1.462-3.453-3.51-6.514-5.997-9h-.006C17.51 3.486 15.462 6.547 14 10a18.554 18.554 0 0 1 6-.994c2.095 0 4.112.351 6 .994"/>
        <path fill="#22194F" d="M19.5 8.29c.336 0 .673.009 1.01.023 1.804.085 2.89-1.837 1.834-3.21-.38-.494-.78-.975-1.196-1.44-.856-.956-2.441-.956-3.297 0-.316.353-.622.716-.918 1.086-1.195 1.497.03 3.598 2.029 3.548.179-.005.358-.007.537-.007zM25.456 10a20.372 20.372 0 0 0-5.958-.883c-2.034 0-4.038.297-5.958.883L13 9.44a26.046 26.046 0 0 1 6.191-8.325l.13-.115h.354l.133.115A26.05 26.05 0 0 1 26 9.44l-.543.56z"/>
        <path fill="#167C75" d="M24 20a4 4 0 1 1-7.999.001A4 4 0 0 1 24 20"/>
        <path fill="#22194F" d="M19.5 15.869a3.635 3.635 0 0 0-3.631 3.631 3.636 3.636 0 0 0 3.631 3.632 3.636 3.636 0 0 0 3.631-3.632 3.635 3.635 0 0 0-3.631-3.631m0 8.131c-2.48 0-4.5-2.02-4.5-4.5 0-2.482 2.02-4.5 4.5-4.5s4.5 2.018 4.5 4.5c0 2.48-2.02 4.5-4.5 4.5M22.544 33.504l-.088-.008.088.008"/>
        <g transform="translate(0 8)">
            <mask id="f" fill="#fff">
                <use xlink:href="#e"/>
            </mask>
            <path fill="#22194F" d="M35.358 31.122l-.203.281c-.93 1.331-2.384 2.138-3.988 2.096-1.863-.05-3.893-2.6-3.286-4.177.712-1.85 1.958-2.008 5.927-.606.421.148.876.054 1.194-.276.362-.37.469-.93.27-1.425a21.45 21.45 0 0 0-1.877-3.572c-1.114-1.7-2.579-3.578-3.583-6.41-1.218-3.434-1.573-8.796-2.376-11.304-.86-2.685.192-2.685 1.998-1.55 5.434 3.41 9.162 9.385 9.162 16.292 0 3.824-1.122 7.513-3.238 10.651M11.349 8.092c-.517 2.43-.595 5.937-1.556 8.647-.908 2.563-2.367 4.54-3.5 6.331-1.057 1.67-1.81 3.215-2.1 3.945a1.337 1.337 0 0 0 .27 1.425c.222.228.509.348.804.348.13 0 .261-.03.392-.072 4.274-1.384 5.82-.763 6.182 1.081.47 2.39-1.766 3.758-3.542 3.702-1.603-.05-3.058-.765-3.992-2.1l-.19-.265A19.002 19.002 0 0 1 .87 20.463C.873 14.535 3.414 9.01 7.822 5.747c2.958-2.192 3.992.163 3.527 2.345m14.706-6.457l-.002-.004-.184-.062c-.06-.019-.123-.036-.184-.055a16.826 16.826 0 0 0-.746-.222 43.73 43.73 0 0 0-.421-.111c-.085-.02-.169-.043-.254-.062a19.468 19.468 0 0 0-.592-.133C23.6.972 23.528.96 23.458.945c-.165-.031-.33-.06-.494-.088l-.175-.03c-.214-.033-.429-.062-.645-.09C22.062.727 21.98.72 21.9.71c-.185-.023-.37-.036-.555-.054L21.276.65a16.278 16.278 0 0 0-.845-.048 19.454 19.454 0 0 0-.698-.014c-.297 0-.593.01-.888.022-.114.005-.227.015-.34.02-.174.011-.349.023-.521.04a13.843 13.843 0 0 0-.8.087 19.504 19.504 0 0 0-11.412 5.64C2.052 10.143.002 15.138 0 20.463a19.898 19.898 0 0 0 3.404 11.175l.196.27c1.096 1.567 2.808 2.467 4.699 2.467 3.19 0 5.785-2.615 5.785-5.839 0-.386.235-.73.587-.853a27.005 27.005 0 0 1 7.351-1.476c.009 0 .02-.01.03-.03.252-.37-.026-.876-.47-.898a37.577 37.577 0 0 0-2.144-.05 41.106 41.106 0 0 0-14.085 2.666c-.099.038-.188.014-.267-.068A.451.451 0 0 1 5 27.341c1.207-3.037 3.137-5.644 5.586-7.546.006 0 .03.013.046.058.248.75.53 1.494.834 2.212a.611.611 0 0 0 .774.358.657.657 0 0 0 .41-.798 30.01 30.01 0 0 1-.97-7.599c0-4.05.783-7.94 2.324-11.569.068-.055.126-.104.193-.16.137-.035.271-.08.407-.117a16.157 16.157 0 0 1 .628-.167l.356-.084c.146-.034.292-.066.44-.094.08-.018.162-.032.244-.047.158-.03.316-.059.475-.083l.173-.029a17.129 17.129 0 0 1 .741-.096c.202-.021.404-.043.606-.058l.04-.004c.206-.014.41-.026.617-.034l.164-.007a19.42 19.42 0 0 1 1.289 0l.163.007a21.803 21.803 0 0 1 .65.037c.207.016.413.038.617.06a15.524 15.524 0 0 1 .755.1c.045.005.09.013.135.02.168.026.337.057.506.088.075.015.15.028.225.044.164.032.326.067.487.104.097.021.193.046.29.07a16.855 16.855 0 0 1 .645.17c.187.053.371.112.558.165a.02.02 0 0 0 .006.005c1.573 3.66 2.37 7.587 2.37 11.68 0 2.584-.326 5.14-.97 7.598a.657.657 0 0 0 .41.798c.316.11.64-.041.775-.358.305-.718.586-1.463.834-2.212.015-.045.037-.058.05-.053 2.445 1.897 4.375 4.503 5.582 7.541a.451.451 0 0 1-.085.486c-.079.082-.17.106-.267.068a41.052 41.052 0 0 0-8.055-2.147c-.018.047-.358.875-.365.895a6.015 6.015 0 0 0-.312 1.904c0 3.213 2.596 5.828 5.785 5.828 1.89 0 3.604-.9 4.697-2.46l.205-.289a19.88 19.88 0 0 0 3.398-11.155c0-8.736-5.622-16.175-13.412-18.836" mask="url(#f)"/>
        </g>
        <g transform="translate(12)">
            <mask id="h" fill="#fff">
                <use xlink:href="#g"/>
            </mask>
            <path fill="#22194F" d="M11.55 9.073a20.357 20.357 0 0 0-7.248-.32c-1.093.148-1.865-1.033-1.29-1.981a27.176 27.176 0 0 1 4.03-5.14 27.397 27.397 0 0 1 4.977 6.83.424.424 0 0 1-.468.611M7.356.671L7.032.378 6.727.67C4.074 3.235 1.947 6.32.409 9.835l.552.616a19.393 19.393 0 0 1 6.08-.972 19.4 19.4 0 0 1 6.082.972l.552-.616c-1.54-3.516-3.665-6.6-6.319-9.164" mask="url(#h)"/>
        </g>
        <path fill="#FEFEFE" d="M17.5 18.176l.115.21.209.114-.209.114-.115.21-.115-.21-.209-.114.209-.114zM33.5 27.176l.115.21.209.114-.209.115-.115.209-.115-.209-.209-.115.209-.114zM30.5 38.176l.115.209.209.115-.209.114-.115.21-.115-.21-.209-.114.209-.115zM5.5 16.176l.115.21.209.114-.209.114-.115.21-.115-.21-.209-.114.209-.114zM17.5 21.176l.114.21.21.114-.21.114-.114.21-.115-.21-.209-.114.209-.114zM21.5 18.176l.115.21.209.114-.209.114-.115.21-.114-.21-.21-.114.21-.114zM29.5 14.176l.114.209.21.115-.21.114-.114.21-.115-.21-.209-.114.209-.115zM34.5 19.177l.114.209.21.114-.21.114-.114.21-.115-.21-.209-.114.209-.114zM36.5 31.177l.115.209.209.114-.209.114-.115.21-.114-.21-.21-.114.21-.114zM7.5 23.176l.115.209.209.115-.209.114-.115.21-.114-.21-.21-.114.21-.115zM3.5 21.176l.115.21.209.114-.209.114-.115.21-.114-.21-.21-.114.21-.114zM20.5 19l.177.323.323.176-.323.178L20.5 20l-.177-.323L20 19.5l.323-.176zM4.5 28l.177.323L5 28.5l-.323.177L4.5 29l-.176-.323L4 28.5l.324-.177z"/>
    </g>
</svg>
