<svg xmlns="http://www.w3.org/2000/svg" width="64" height="64" viewBox="0 0 64 64">
    <g fill="#0FA9EB" fill-rule="evenodd">
        <path fill-rule="nonzero" d="M33.635 13c-9.063 0-16.901 5.82-19.505 14.48l-.735 2.443a16.43 16.43 0 0 1-4.117 6.88l-.978.977a1.016 1.016 0 0 0 0 1.441 16.271 16.271 0 0 1 4.811 11.591c0 3.335 2.718 6.048 6.06 6.048a9.452 9.452 0 0 0 4.466-1.124l1.74-.934v8.178c0 .563.458 1.02 1.023 1.02h17.378a1.02 1.02 0 0 0 1.022-1.02v-7.498c0-3.444 1.343-6.681 3.784-9.117A18.308 18.308 0 0 0 54 33.32C54 22.116 44.864 13 33.635 13zm5.032 48.96H27.422v-8.257l7.64-4.104-.969-1.797-11.426 6.139a7.402 7.402 0 0 1-3.495.879 4.016 4.016 0 0 1-4.016-4.008 18.28 18.28 0 0 0-4.707-12.293l.275-.274a18.49 18.49 0 0 0 4.63-7.737l.736-2.442c2.34-7.791 9.393-13.026 17.545-13.026 1.746 0 3.43.26 5.032.718v6.422h-1.219l-.947 2.518-2.455-1.112-3.17 3.164 1.116 2.449-2.525.944v4.474l2.525.944-1.117 2.45 3.171 3.163 2.455-1.112.947 2.518h1.219v19.38zm.197-21.42l-.85-2.26-.438-.161a6.168 6.168 0 0 1-.458-.19l-.425-.195-2.203.999-1.166-1.164 1-2.198-.197-.426c-.07-.149-.13-.3-.188-.456l-.163-.438-2.265-.848v-1.646l2.265-.848.163-.438a5.55 5.55 0 0 1 .188-.456l.197-.426-1-2.198 1.166-1.164 2.203.999.425-.196c.15-.07.304-.131.458-.189l.438-.162.849-2.259h1.65l.85 2.26.439.161c.154.058.309.12.458.19l.425.195 2.203-.999 1.166 1.164-1 2.198.197.426c.07.149.13.3.188.456l.162.438 2.266.848v1.646l-2.266.848-.162.438a5.55 5.55 0 0 1-.188.456l-.197.426 1 2.198-1.166 1.164-2.203-.999-.425.196c-.15.07-.304.131-.458.189l-.439.162-.848 2.259h-1.651zm8.275 4.384a14.81 14.81 0 0 0-4.383 10.558v6.478H40.71V42.58h1.219l.947-2.518 2.455 1.112 3.17-3.164-1.116-2.449 2.525-.944v-4.474l-2.525-.944 1.116-2.45-3.17-3.163-2.455 1.112-.947-2.518H40.71v-5.72c6.599 2.768 11.245 9.282 11.245 16.86 0 4.383-1.712 8.504-4.817 11.604zM52.712 0H5.144C2.308 0 0 2.243 0 5s2.308 5 5.144 5h47.568L63 5 52.712 0zM9.259 8H5.144C3.442 8 2.058 6.654 2.058 5s1.384-3 3.086-3h4.115v6zM51.44 4H15.432v2H51.44v2H11.317V6h2.057V4h-2.057V2H51.44v2zm2.058-1.382L58.399 5l-4.901 2.382V2.618z"/>
        <path fill-rule="nonzero" d="M40 28c-2.206 0-4 1.794-4 4s1.794 4 4 4 4-1.794 4-4-1.794-4-4-4zm0 6c-1.103 0-2-.897-2-2s.897-2 2-2 2 .897 2 2-.897 2-2 2zM61 58c-1.654 0-3 1.346-3 3s1.346 3 3 3 3-1.346 3-3-1.346-3-3-3zm0 4a1.001 1.001 0 0 1 0-2 1.001 1.001 0 0 1 0 2zM3 39c-1.654 0-3 1.346-3 3s1.346 3 3 3 3-1.346 3-3-1.346-3-3-3zm0 4a1.001 1.001 0 0 1 0-2 1.001 1.001 0 0 1 0 2z"/>
        <path d="M2 49h2v2H2zM2 56h2v2H2zM2 62h2v2H2zM60 39h2v2h-2zM60 45h2v2h-2zM60 51h2v2h-2z"/>
    </g>
</svg>
