<svg xmlns="http://www.w3.org/2000/svg" width="44" height="20" viewBox="0 0 44 20">
    <g fill="#000" fill-rule="evenodd" opacity=".5">
        <text font-family="ProximaNova-Regular, Proxima Nova" font-size="8" transform="translate(0 -1)">
            <tspan x="0" y="7">Follow us on</tspan>
        </text>
        <path fill-rule="nonzero" d="M2.007 10.035C1.21 10.337.331 11.19.054 12.261c-.35 1.357 1.11 1.931 1.23 1.743.14-.221-.262-.296-.345-1-.107-.91.36-1.925.95-2.371.109-.083.104.032.104.245 0 .382-.024 3.805-.024 4.52 0 .966-.044 1.272-.123 1.573-.08.306-.21.512-.112.592.11.089.577-.123.847-.464.324-.41.438-.9.458-1.434.025-.643.024-1.664.025-2.246 0-.534.01-2.098-.01-3.038-.006-.23-.713-.473-1.047-.346zm28.345 4.524c-.025.503-.148.896-.301 1.173-.296.536-.91.703-1.17-.068-.142-.42-.149-1.123-.047-1.71.104-.597.394-1.048.875-1.007.474.04.696.592.643 1.612zm-7.989 3.118c-.006.835-.151 1.568-.463 1.78-.442.302-1.037.076-.914-.534.11-.539.624-1.09 1.379-1.762 0 0 .001.153-.001.516zm-.12-3.123c-.027.458-.159.918-.302 1.178-.296.536-.914.704-1.17-.068-.175-.528-.133-1.21-.046-1.641.112-.558.385-1.076.874-1.076.476 0 .71.472.644 1.607zm-4.628-.007c-.03.485-.134.89-.302 1.185-.304.533-.905.702-1.17-.068-.19-.555-.126-1.312-.046-1.721.118-.607.413-1.037.874-.996.474.042.704.592.644 1.6zm21.209.567c-.116 0-.17.108-.213.29-.151.63-.31.773-.516.773-.23 0-.436-.312-.49-.938-.041-.493-.034-1.399.019-2.3.01-.185-.046-.368-.595-.549-.237-.077-.58-.192-.751.182-.484 1.055-.673 1.892-.718 2.232-.002.018-.026.022-.03-.02-.028-.272-.092-.767-.1-1.808-.001-.203-.049-.375-.297-.517-.16-.092-.649-.254-.825-.06-.152.157-.329.582-.512 1.086-.149.41-.253.687-.253.687l.004-1.524c0-.159-.12-.211-.155-.22-.163-.044-.484-.115-.62-.115-.168 0-.21.085-.21.209 0 .016-.026 1.455-.026 2.46v.143c-.092.462-.394 1.09-.722 1.09-.328 0-.483-.263-.483-1.462 0-.7.023-1.004.035-1.51.007-.291.02-.515.019-.566-.003-.156-.3-.234-.44-.263a1.43 1.43 0 0 0-.354-.036c-.134.007-.229.086-.229.195l.001.17a1.268 1.268 0 0 0-.634-.464c-.496-.134-1.015-.016-1.406.479-.31.393-.498.838-.571 1.477a3.97 3.97 0 0 0 .06 1.342c-.117.452-.331.637-.567.637-.341 0-.589-.503-.56-1.375.019-.573.146-.975.284-1.557.06-.248.012-.378-.109-.503-.11-.114-.346-.172-.685-.1-.24.05-.586.106-.901.148 0 0 .019-.069.035-.19.082-.635-.682-.583-.925-.38a.758.758 0 0 0-.282.52c-.06.408.308.6.308.6-.12.499-.416 1.15-.721 1.622-.164.252-.289.44-.45.638l-.001-.222a86.586 86.586 0 0 1 .018-2.172c.007-.291.02-.51.019-.56-.002-.114-.075-.157-.229-.211a1.769 1.769 0 0 0-.46-.094c-.21-.014-.337.086-.333.205v.16a1.268 1.268 0 0 0-.634-.464c-.496-.134-1.015-.016-1.405.479-.311.393-.515.944-.572 1.472-.054.492-.044.91.03 1.263-.08.353-.307.722-.563.722-.329 0-.515-.263-.515-1.462 0-.7.023-1.004.034-1.51.007-.291.02-.515.019-.566-.003-.156-.3-.234-.44-.263a1.406 1.406 0 0 0-.366-.035c-.127.008-.216.11-.216.188v.176a1.268 1.268 0 0 0-.634-.464c-.496-.134-1.012-.014-1.405.479-.257.32-.465.677-.572 1.465-.031.228-.045.441-.043.64-.102.566-.555 1.219-.925 1.219-.216 0-.422-.38-.422-1.189 0-1.077.074-2.611.086-2.76l.558-.007c.233-.003.444.002.755-.012.156-.007.306-.512.145-.575-.073-.028-.588-.053-.792-.057-.172-.003-.65-.035-.65-.035s.043-1.019.053-1.126c.009-.09-.12-.136-.193-.164a2.871 2.871 0 0 0-.529-.137c-.262-.049-.381 0-.404.2-.035.303-.053 1.192-.053 1.192-.193 0-.85-.034-1.043-.034-.178 0-.371.695-.124.704.284.01.78.018 1.109.027 0 0-.015 1.56-.015 2.041v.148c-.18.852-.817 1.313-.817 1.313.136-.564-.143-.987-.646-1.346a47.802 47.802 0 0 0-.961-.656s.237-.21.447-.636c.15-.301.156-.646-.21-.722-.605-.126-1.103.276-1.252.704-.115.332-.054.578.172.834.016.019.034.038.053.057a21.38 21.38 0 0 1-.483.806c-.44.69-.774 1.235-1.025 1.235-.201 0-.199-.554-.199-1.072 0-.447.037-1.118.066-1.814.01-.23-.118-.36-.331-.48-.13-.071-.406-.213-.566-.213-.24 0-.932.03-1.585 1.738a34.5 34.5 0 0 1-.244.608l.014-2.055c0-.048-.029-.095-.094-.127a1.745 1.745 0 0 0-.666-.164c-.124 0-.187.052-.187.157l-.022 3.214c0 .245.007.53.033.654a.65.65 0 0 0 .124.287c.053.06.115.106.216.125.095.018.613.078.64-.101.033-.215.034-.447.306-1.312.424-1.348.976-2.006 1.236-2.24.046-.04.097-.043.095.024-.011.296-.05 1.034-.076 1.661-.07 1.679.267 1.99.75 1.99.37 0 .89-.332 1.448-1.171.348-.524.686-1.037.929-1.407.169.142.359.294.548.457.441.378.586.738.49 1.079-.073.26-.35.529-.842.268-.144-.076-.205-.135-.35-.221-.077-.046-.195-.06-.266-.012a.857.857 0 0 0-.35.483c-.059.193.155.295.376.384.19.076.6.146.86.154 1.017.03 1.831-.444 2.398-1.668.102 1.057.534 1.655 1.284 1.655.502 0 1.005-.586 1.225-1.163.063.235.156.44.277.613.578.828 1.7.65 2.264-.054.174-.217.2-.295.2-.295.083.664.674.896 1.013.896.38 0 .77-.162 1.045-.72.033.06.068.118.106.173.578.828 1.7.65 2.264-.054l.07-.09.016.437-.519.43c-.868.72-1.529 1.266-1.577 1.903-.063.81.665 1.112 1.216 1.152.585.042 1.086-.25 1.394-.659.27-.36.448-1.134.435-1.898-.005-.307-.014-.696-.02-1.113.305-.32.648-.726.965-1.2.345-.516.715-1.21.904-1.75 0 0 .322.003.665-.018.11-.006.14.014.12.087-.024.087-.433 1.513-.06 2.462.256.65.831.859 1.173.859.4 0 .781-.273.986-.678.025.045.05.09.079.13.578.828 1.696.648 2.263-.054.128-.158.201-.295.201-.295.122.687.713.9 1.052.9.352 0 .687-.132.959-.712.011.255.03.465.057.53.018.04.118.091.19.116.323.108.653.057.774.035.085-.016.15-.077.16-.235.023-.415.009-1.112.148-1.63.233-.869.451-1.206.554-1.373.058-.093.123-.108.126-.01.005.2.016.789.106 1.579.067.581.155.924.223 1.033.195.311.435.326.631.326.125 0 .385-.031.362-.23-.011-.096.008-.692.239-1.548.15-.559.4-1.064.49-1.249.034-.068.05-.014.05-.004-.02.385-.063 1.645.111 2.334.235.933.916 1.037 1.153 1.037.506 0 .92-.348 1.06-1.264.034-.22-.016-.39-.165-.39h-.001z"/>
    </g>
</svg>
