<svg xmlns="http://www.w3.org/2000/svg" width="44" height="20" viewBox="0 0 44 20">
    <g fill="#000" fill-rule="evenodd" opacity=".5">
        <text font-family="ProximaNova-Regular, Proxima Nova" font-size="8" transform="translate(0 -1)">
            <tspan x="0" y="7">Follow us on</tspan>
        </text>
        <path d="M27.974 9.863v9.28c0 .429.33.776.738.776h8.51c.407 0 .737-.347.737-.776v-9.28c0-.428-.33-.776-.738-.776h-8.51c-.407 0-.737.348-.737.776zM31 18.155h-1.509v-4.891h1.509v4.89zm-.755-5.56h-.01c-.506 0-.833-.375-.833-.844 0-.48.338-.845.853-.845.516 0 .834.365.844.845 0 .47-.328.845-.854.845zm1.59 5.56s.019-4.433 0-4.891h1.507v.709h-.01c.199-.334.556-.824 1.37-.824.992 0 1.736.699 1.736 2.201v2.805h-1.508v-2.617c0-.657-.218-1.106-.764-1.106-.417 0-.665.302-.774.595-.04.104-.05.25-.05.396v2.732h-1.508zM.02 18.16h4.168v-1.474h-2.66v-5.627H.02zM6.298 18.16v-4.89H4.789v4.89h1.509zm-.755-5.558c.526 0 .854-.376.854-.846-.01-.48-.328-.844-.844-.844s-.853.365-.853.844c0 .47.327.846.834.846h.01zM6.998 18.16h1.508v-2.73c0-.147.01-.293.05-.398.109-.292.357-.594.774-.594.545 0 .764.449.764 1.106v2.617h1.508v-2.805c0-1.502-.744-2.201-1.737-2.201-.813 0-1.17.49-1.369.824h.01v-.71H6.998c.02.46 0 4.892 0 4.892zM13.73 11.06H12.22v7.1h1.509v-1.585l.376-.512 1.181 2.098h1.856l-1.985-3.037 1.737-2.065h-1.816s-1.24 1.848-1.35 2.067v-4.067z"/>
        <path d="M21.176 16.12c.02-.125.05-.366.05-.639 0-1.264-.596-2.548-2.163-2.548-1.677 0-2.451 1.43-2.451 2.726 0 1.604.942 2.606 2.59 2.606.654 0 1.26-.104 1.756-.324l-.199-1.073a3.832 3.832 0 0 1-1.34.218c-.704 0-1.319-.312-1.368-.976l3.125.01zm-3.135-1.1c.04-.417.297-1.033.942-1.033.685 0 .844.658.844 1.033H18.04zM24.949 11.06v2.458h-.02c-.219-.345-.675-.574-1.28-.574-1.161 0-2.183 1.002-2.173 2.712 0 1.586.922 2.62 2.073 2.62.626 0 1.22-.293 1.519-.856h.03l.059.74h1.34a29.2 29.2 0 0 1-.04-1.523V11.06h-1.508zm0 4.837c0 .125-.01.25-.03.354-.09.449-.447.762-.883.762-.625 0-1.032-.543-1.032-1.398 0-.804.347-1.45 1.042-1.45.466 0 .793.344.883.772.02.094.02.198.02.292v.668z"/>
    </g>
</svg>
