<svg xmlns="http://www.w3.org/2000/svg" width="34" height="33" viewBox="0 0 34 33">
    <g fill="#000" fill-rule="evenodd" opacity=".2">
        <path d="M11.568 22.626a93.073 93.073 0 0 0 4.169 5.259H12.9a.566.566 0 0 0-.575.557c0 .308.257.558.575.558h9.2c.317 0 .575-.25.575-.558a.566.566 0 0 0-.575-.557h-2.837l.39-.46a92.067 92.067 0 0 0 3.779-4.8 48.776 48.776 0 0 0 3.798-5.937c1.174-2.236 1.77-4.092 1.77-5.517.004-2.962-1.208-5.804-3.368-7.897a.587.587 0 0 0-.559-.153.567.567 0 0 0-.41.398.546.546 0 0 0 .156.543c1.944 1.885 3.034 4.442 3.031 7.108 0 1.249-.553 2.935-1.645 5.012a47.675 47.675 0 0 1-3.712 5.8 91.069 91.069 0 0 1-4.555 5.705.59.59 0 0 1-.438.193.59.59 0 0 1-.438-.193 90.593 90.593 0 0 1-4.555-5.706 47.675 47.675 0 0 1-3.713-5.799C7.702 14.105 7.15 12.419 7.15 11.17c0-4.039 2.49-7.686 6.325-9.263a10.715 10.715 0 0 1 8.056 0 .59.59 0 0 0 .57-.068.55.55 0 0 0-.121-.959c-5.856-2.395-12.605.266-15.076 5.944A10.823 10.823 0 0 0 6 11.17c0 1.426.596 3.282 1.77 5.521a48.743 48.743 0 0 0 3.798 5.935z"/>
        <path d="M16.5 6.1a.55.55 0 1 0 0-1.1 5.5 5.5 0 1 0 3.89 1.61.55.55 0 1 0-.779.779 4.4 4.4 0 1 1-3.11-1.29zM33.787 30.395l-3.485-6.47A1.75 1.75 0 0 0 28.76 23H24.72a.578.578 0 0 0-.567.588c0 .325.254.588.567.588h4.039a.624.624 0 0 1 .553.322l3.484 6.47a.547.547 0 0 1-.005.544.618.618 0 0 1-.548.311H1.757a.618.618 0 0 1-.548-.311.547.547 0 0 1-.005-.544l3.484-6.47a.623.623 0 0 1 .553-.322h4.038a.578.578 0 0 0 .567-.588.578.578 0 0 0-.567-.588H5.241a1.752 1.752 0 0 0-1.543.924l-3.485 6.47a1.762 1.762 0 0 0 .018 1.713c.317.56.9.9 1.526.893h30.487a1.733 1.733 0 0 0 1.525-.893c.302-.526.308-1.18.018-1.712z"/>
        <path d="M28.444 26h-2.222c-.11 0-.217.03-.308.084l-1.667 1c-.255.153-.324.464-.154.693.17.23.516.292.771.139L26.389 27h2.055c.307 0 .556-.224.556-.5s-.249-.5-.556-.5zM24 30.5c0 .276.269.5.6.5h4.8c.331 0 .6-.224.6-.5s-.269-.5-.6-.5h-4.8c-.331 0-.6.224-.6.5zM9.444 28a.552.552 0 0 0 .532-.355.476.476 0 0 0-.223-.561l-1.667-1A.604.604 0 0 0 7.777 26H5.555c-.306 0-.555.224-.555.5s.249.5.555.5h2.056l1.526.916c.091.055.198.084.307.084zM4.6 30c-.331 0-.6.224-.6.5s.269.5.6.5h4.8c.331 0 .6-.224.6-.5s-.269-.5-.6-.5H4.6z"/>
    </g>
</svg>
