<svg xmlns="http://www.w3.org/2000/svg" width="10" height="12" viewBox="0 0 10 12">
    <g fill="none" fill-rule="evenodd">
        <path fill="#E2574C" d="M.786 0h5.676L10 3.365v7.885c0 .414-.352.75-.786.75H.786C.352 12 0 11.664 0 11.25V.75C0 .336.352 0 .786 0z"/>
        <path fill="#B53629" d="M10 3.358l-2.645.014c-.492 0-.892-.3-.892-.668V0L10 3.358z"/>
        <path fill="#FFF" fill-rule="nonzero" d="M8.068 5.577c.143 0 .214-.147.214-.288 0-.147-.074-.289-.214-.289h-.819C7.09 5 7 5.155 7 5.326v2.348c0 .21.102.326.24.326.137 0 .24-.116.24-.326V7.03h.495c.154 0 .23-.147.23-.293 0-.143-.076-.284-.23-.284H7.48v-.876h.588zM5.02 5h-.6c-.162 0-.277.13-.277.324v2.352c0 .24.166.315.284.315h.629c.744 0 1.235-.571 1.235-1.453C6.29 5.605 5.828 5 5.02 5zm.028 2.411h-.365v-1.83h.33c.497 0 .714.39.714.928 0 .504-.213.902-.679.902zM2.855 5H2.26C2.094 5 2 5.13 2 5.326v2.348c0 .21.107.326.251.326.144 0 .252-.116.252-.326V6.99h.372c.459 0 .837-.38.837-.99C3.712 5.4 3.347 5 2.855 5zm-.01 1.438h-.342v-.886h.342c.21 0 .345.192.345.443 0 .25-.134.443-.345.443z"/>
    </g>
</svg>
