<svg xmlns="http://www.w3.org/2000/svg" width="46" height="20" viewBox="0 0 46 20">
    <g fill="#000" fill-rule="evenodd" opacity=".5">
        <path fill-rule="nonzero" d="M2.479 19.905A3.462 3.462 0 0 1 .34 18.173c-.322-.636-.322-.631-.323-3.555-.038-2.528-.023-2.61.15-2.854a1.13 1.13 0 0 1 1.702-.269c.371.32.4.429.4 1.476v.907h1.562c.955 0 1.652.02 1.795.05.815.17 1.124 1.123.559 1.72a1.41 1.41 0 0 1-.305.225c-.178.093-.244.097-1.897.11l-1.713.014v.405c0 .589.062.782.342 1.055.326.319.413.334 1.943.335 1.187.001 1.293.008 1.485.093.73.322.91 1.181.373 1.764-.314.34-.334.344-2.074.342-1.358-.001-1.578-.011-1.86-.086zm6.952.02c-.707-.168-1.438-.694-1.884-1.357-.411-.61-.491-1.04-.493-2.646-.002-1.385.026-1.56.299-1.834.252-.254.412-.32.783-.32.284-.002.355.016.55.134.14.084.279.22.365.356.173.293.141.415.162 1.618.023 1.37.026 1.401.131 1.568.357.56 1.094.643 1.584.177.282-.27.309-.427.309-1.841 0-1.163.005-1.241.097-1.42.184-.358.45-.548.844-.6.422-.057.877.186 1.095.584.097.178.103.25.125 1.562-.008 1.09.044 1.41.15 1.562.336.497 1.043.604 1.485.225.317-.272.317-.271.343-1.79.022-1.305.028-1.382.124-1.559.405-.743 1.429-.79 1.874-.086.288.39.162 1.217.162 1.75.021.701-.021 1.6-.146 1.877-.341.942-1.101 1.69-2.015 1.984-.414.133-1.328.165-1.74.06a3.25 3.25 0 0 1-1.066-.478l-.275-.189-.274.189a3.18 3.18 0 0 1-1.034.474c-.343.087-1.187.087-1.555 0zm9.55.006c-.21-.089-.47-.33-.585-.539-.1-.183-.1-.203-.1-2.5 0-2.211.003-2.325.09-2.494a1.156 1.156 0 0 1 1.843-.317c.348.34.347.332.332 2.883-.013 2.202-.015 2.247-.112 2.424-.129.232-.362.45-.578.537-.208.085-.696.089-.89.006zm4.826-.025a3.413 3.413 0 0 1-2.288-2.03c-.203-.529-.219-.798-.204-3.413.015-2.412.017-2.454.114-2.631.487-.883 1.82-.771 2.11.177.048.16.067.45.067 1.041v.82l1.092.016c1.01.015 1.106.024 1.276.113.8.418.803 1.455.007 1.871-.179.093-.26.1-1.287.114L23.6 16l.015.525c.018.613.089.796.4 1.03.272.203.443.237 1.225.237.627.001.71.01.922.107.883.402.882 1.62-.002 2.013-.273.121-1.873.118-2.352-.005zm5.854.002c-1.158-.31-2.109-1.261-2.409-2.41-.073-.283-.081-.568-.082-2.878.018-2.397-.104-2.303.126-2.796.264-.49.81-.707 1.387-.55.24.066.646.462.713.697.027.098.05.558.05 1.042v.865h.936c1.073 0 1.358.04 1.616.22.56.394.572 1.275.024 1.663-.273.194-.532.231-1.613.231h-.963v.408c0 .536.063.762.28 1.003.296.329.406.36 1.356.387.827.024.833.024 1.058.16.257.156.496.5.542.783.067.409-.152.87-.53 1.115l-.193.125-.992.01c-.847.008-1.038-.003-1.306-.075zm5.74.02a3.327 3.327 0 0 1-1.653-.973c-.589-.612-.854-1.287-.852-2.167 0-.538.095-.958.314-1.403.231-.47.485-.776.858-1.037 1.088-.76 3.022-.807 4.24-.104.436.252.89.728 1.11 1.166.447.886.402 1.689-.109 1.95-.176.09-.259.094-2.126.107l-1.943.012v.118c0 .184.3.433.629.524.225.062.496.075 1.512.075.688 0 1.313.02 1.405.046.792.215.95 1.24.254 1.64-.226.149-.362.111-1.804.11-1.195-.002-1.664-.018-1.835-.064zm2.021-3.992c-.086-.284-.334-.452-.788-.534-.483-.087-1.158.108-1.288.373-.057.116-.112.25-.112.25s.401.012 1.114.012h1.105l-.03-.101zm3.47 3.972c-.236-.126-.489-.418-.549-.636-.035-.128-.046-.627-.035-1.543.017-1.334.02-1.36.143-1.724.327-.959 1.2-1.754 2.215-2.017.374-.097 2.097-.144 2.473-.067.522.106.861.5.861 1 0 .427-.198.757-.57.948-.174.09-.274.1-1.27.122-1.031.023-1.088.028-1.253.13a.986.986 0 0 0-.443.568c-.03.109-.05.645-.05 1.352 0 1.171 0 1.172-.12 1.406a.984.984 0 0 1-.334.38c-.187.127-.256.146-.558.157-.271.01-.38-.007-.51-.076zm-21.967-6.82c-.73-.357-.863-1.296-.257-1.817.237-.203.427-.271.754-.271.457 0 .812.209 1.018.599.491.932-.552 1.958-1.515 1.488z"/>
        <text font-family="ProximaNova-Regular, Proxima Nova" font-size="8" transform="translate(0 -1)">
            <tspan x="0" y="7">Follow us on</tspan>
        </text>
    </g>
</svg>
