<svg xmlns="http://www.w3.org/2000/svg" width="48" height="20" viewBox="0 0 48 20">
    <g fill="#000" fill-rule="evenodd" opacity=".5">
        <path d="M14.619 11.565c.32 1.117.307 3.447.307 3.447s0 2.317-.307 3.435a1.832 1.832 0 0 1-1.316 1.259C12.135 20 7.463 20 7.463 20s-4.66 0-5.84-.306a1.832 1.832 0 0 1-1.316-1.259C0 17.33 0 15 0 15s0-2.318.307-3.435a1.868 1.868 0 0 1 1.316-1.27C2.791 10 7.463 10 7.463 10s4.672 0 5.84.306c.64.165 1.144.647 1.316 1.259zM5.975 17.14L9.861 15l-3.886-2.141v4.282z"/>
        <path fill-rule="nonzero" d="M22.413 19.696c-.3-.187-.513-.48-.638-.888-.125-.398-.187-.935-.187-1.59v-.9c0-.666.075-1.204.212-1.613.15-.409.375-.701.675-.888.313-.187.713-.28 1.213-.28.487 0 .887.093 1.187.28.3.187.512.49.65.888.137.398.213.935.213 1.613v.9c0 .666-.063 1.192-.2 1.601-.138.398-.35.702-.65.889-.3.187-.713.28-1.226.28-.525-.011-.95-.105-1.25-.292zm1.687-.982c.088-.198.125-.537.125-.993v-1.94c0-.445-.037-.772-.125-.982-.087-.21-.225-.304-.438-.304-.2 0-.35.105-.424.304-.088.21-.125.537-.125.982v1.94c0 .456.037.795.125.993a.437.437 0 0 0 .437.304c.2 0 .338-.093.425-.304zM45.487 17.23v.315c0 .398.013.702.038.9.025.2.075.351.162.433.075.093.2.14.375.14.225 0 .375-.082.463-.245.087-.164.125-.433.137-.818l1.288.07c.012.058.012.128.012.222 0 .572-.162 1.005-.5 1.285-.337.281-.812.421-1.425.421-.737 0-1.25-.222-1.55-.654-.3-.433-.45-1.099-.45-2.01V16.2c0-.935.15-1.613.463-2.045.312-.433.837-.643 1.575-.643.512 0 .912.093 1.187.269.275.175.463.456.575.818.113.374.163.888.163 1.543v1.063h-2.513v.024zm.188-2.618c-.075.093-.125.233-.15.432a8.016 8.016 0 0 0-.038.912v.444h1.1v-.444c0-.398-.012-.701-.037-.912-.025-.21-.088-.35-.163-.432-.075-.082-.2-.129-.35-.129-.175-.012-.287.035-.362.129z"/>
        <path d="M18.762 17.113l-1.7-5.762h1.488l.6 2.606c.15.643.263 1.192.338 1.648h.037c.05-.327.163-.865.338-1.636l.625-2.618h1.487l-1.725 5.762v2.758h-1.475v-2.758h-.012zM30.575 13.653v6.23H29.4l-.125-.76h-.037c-.313.573-.8.865-1.438.865-.438 0-.763-.14-.975-.409-.213-.269-.313-.69-.313-1.274v-4.652h1.5v4.57c0 .28.038.48.1.596.063.117.175.176.325.176.125 0 .25-.035.375-.117a.583.583 0 0 0 .263-.28v-4.945h1.5zM38.263 13.653v6.23h-1.175l-.125-.76h-.038c-.312.573-.8.865-1.437.865-.438 0-.763-.14-.975-.409-.213-.269-.313-.69-.313-1.274v-4.652h1.5v4.57c0 .28.038.48.1.596.063.117.175.176.325.176.125 0 .25-.035.375-.117a.583.583 0 0 0 .263-.28v-4.945h1.5z"/>
        <path d="M34.65 12.484h-1.487v7.387H31.7v-7.387h-1.487v-1.133h4.437v1.133z"/>
        <path fill-rule="nonzero" d="M43.225 14.647c-.088-.398-.238-.678-.438-.853-.2-.176-.487-.27-.837-.27-.275 0-.537.07-.775.223-.237.14-.425.339-.55.572h-.012v-3.284h-1.45v8.836H40.4l.15-.584h.037c.113.21.288.374.525.503.238.116.488.187.775.187.513 0 .875-.222 1.113-.655.238-.432.363-1.122.363-2.045v-.982c-.013-.713-.05-1.263-.138-1.648zm-1.375 2.536c0 .456-.025.807-.063 1.064-.037.257-.112.444-.2.55a.501.501 0 0 1-.375.163.653.653 0 0 1-.587-.328v-3.53a.944.944 0 0 1 .262-.42.628.628 0 0 1 .4-.164c.15 0 .276.059.35.164.088.117.138.304.176.56.037.27.05.644.05 1.123v.818h-.013z"/>
        <text font-family="ProximaNova-Regular, Proxima Nova" font-size="8" transform="translate(0 -1)">
            <tspan x="0" y="7">Follow us on</tspan>
        </text>
    </g>
</svg>
